<mxfile host="app.diagrams.net" modified="2024-03-16T18:35:14.609Z" agent="Mozilla/5.0 (Windows NT 10.0; Win64; x64) AppleWebKit/537.36 (KHTML, like Gecko) Chrome/122.0.0.0 Safari/537.36" etag="1S6Fp6I77vvq7mSwn79z" version="24.0.7" type="device">
  <diagram name="Page-1" id="YUV0za3xesc_tFQvdF2k">
    <mxGraphModel dx="1518" dy="628" grid="1" gridSize="10" guides="1" tooltips="1" connect="1" arrows="1" fold="1" page="1" pageScale="1" pageWidth="850" pageHeight="1100" math="0" shadow="0">
      <root>
        <mxCell id="0" />
        <mxCell id="1" parent="0" />
        <mxCell id="ZNlX92UJGkQ0csMX6uL1-8" style="edgeStyle=orthogonalEdgeStyle;rounded=0;orthogonalLoop=1;jettySize=auto;html=1;" edge="1" parent="1" source="ZNlX92UJGkQ0csMX6uL1-9">
          <mxGeometry relative="1" as="geometry">
            <mxPoint x="425" y="120" as="targetPoint" />
          </mxGeometry>
        </mxCell>
        <mxCell id="ZNlX92UJGkQ0csMX6uL1-9" value="Start" style="rounded=1;whiteSpace=wrap;html=1;" vertex="1" parent="1">
          <mxGeometry x="365" y="20" width="120" height="60" as="geometry" />
        </mxCell>
        <mxCell id="ZNlX92UJGkQ0csMX6uL1-10" style="edgeStyle=orthogonalEdgeStyle;rounded=0;orthogonalLoop=1;jettySize=auto;html=1;" edge="1" parent="1" source="ZNlX92UJGkQ0csMX6uL1-11">
          <mxGeometry relative="1" as="geometry">
            <mxPoint x="425" y="220" as="targetPoint" />
          </mxGeometry>
        </mxCell>
        <mxCell id="ZNlX92UJGkQ0csMX6uL1-11" value="The entered 4 digit number" style="shape=document;whiteSpace=wrap;html=1;boundedLbl=1;" vertex="1" parent="1">
          <mxGeometry x="375" y="120" width="100" height="70" as="geometry" />
        </mxCell>
        <mxCell id="ZNlX92UJGkQ0csMX6uL1-18" style="edgeStyle=orthogonalEdgeStyle;rounded=0;orthogonalLoop=1;jettySize=auto;html=1;exitX=0.5;exitY=1;exitDx=0;exitDy=0;entryX=0.5;entryY=0;entryDx=0;entryDy=0;" edge="1" parent="1" source="ZNlX92UJGkQ0csMX6uL1-13" target="ZNlX92UJGkQ0csMX6uL1-15">
          <mxGeometry relative="1" as="geometry" />
        </mxCell>
        <mxCell id="ZNlX92UJGkQ0csMX6uL1-13" value="&lt;div&gt;int number = 1234;&lt;/div&gt;&lt;div&gt;int sumOfDigits = 0;&lt;/div&gt;&lt;div&gt;int firstDigit,secondDigit,thirdDigit,fourthDigit;&lt;/div&gt;&lt;div&gt;bool isPrime=false;&lt;/div&gt;" style="shape=parallelogram;perimeter=parallelogramPerimeter;whiteSpace=wrap;html=1;fixedSize=1;" vertex="1" parent="1">
          <mxGeometry x="284" y="220" width="282" height="110" as="geometry" />
        </mxCell>
        <mxCell id="ZNlX92UJGkQ0csMX6uL1-20" style="edgeStyle=orthogonalEdgeStyle;rounded=0;orthogonalLoop=1;jettySize=auto;html=1;entryX=0.5;entryY=0;entryDx=0;entryDy=0;" edge="1" parent="1" source="ZNlX92UJGkQ0csMX6uL1-15" target="ZNlX92UJGkQ0csMX6uL1-19">
          <mxGeometry relative="1" as="geometry" />
        </mxCell>
        <mxCell id="ZNlX92UJGkQ0csMX6uL1-15" value="firstDigit = number / 1000;&#xa;secondDigit = number % 1000 / 100;&#xa;thirdDigit = number % 100 / 10;&#xa;fourthDigit = number % 10;&#xa;sumOfDigits=firstDigit+secondDigit+thirdDigit+fourthDigit;" style="rounded=0;whiteSpace=wrap;html=1;" vertex="1" parent="1">
          <mxGeometry x="265" y="360" width="320" height="140" as="geometry" />
        </mxCell>
        <mxCell id="ZNlX92UJGkQ0csMX6uL1-22" style="edgeStyle=orthogonalEdgeStyle;rounded=0;orthogonalLoop=1;jettySize=auto;html=1;entryX=0;entryY=0.5;entryDx=0;entryDy=0;" edge="1" parent="1" source="ZNlX92UJGkQ0csMX6uL1-19" target="ZNlX92UJGkQ0csMX6uL1-21">
          <mxGeometry relative="1" as="geometry" />
        </mxCell>
        <mxCell id="ZNlX92UJGkQ0csMX6uL1-25" style="edgeStyle=orthogonalEdgeStyle;rounded=0;orthogonalLoop=1;jettySize=auto;html=1;entryX=0.5;entryY=0;entryDx=0;entryDy=0;" edge="1" parent="1" source="ZNlX92UJGkQ0csMX6uL1-19" target="ZNlX92UJGkQ0csMX6uL1-24">
          <mxGeometry relative="1" as="geometry">
            <Array as="points">
              <mxPoint x="426" y="750" />
              <mxPoint x="426" y="750" />
            </Array>
          </mxGeometry>
        </mxCell>
        <mxCell id="ZNlX92UJGkQ0csMX6uL1-19" value="if (sumOfDigits==0 || sumOfDigits==1)" style="rhombus;whiteSpace=wrap;html=1;" vertex="1" parent="1">
          <mxGeometry x="335" y="560" width="180" height="170" as="geometry" />
        </mxCell>
        <mxCell id="ZNlX92UJGkQ0csMX6uL1-21" value="Console.WriteLine(sumOfDigits + &quot;is neither simple or complex.&quot;);" style="shape=document;whiteSpace=wrap;html=1;boundedLbl=1;" vertex="1" parent="1">
          <mxGeometry x="610" y="605" width="200" height="80" as="geometry" />
        </mxCell>
        <mxCell id="ZNlX92UJGkQ0csMX6uL1-23" value="Yes?" style="text;html=1;align=center;verticalAlign=middle;whiteSpace=wrap;rounded=0;" vertex="1" parent="1">
          <mxGeometry x="525" y="620" width="60" height="30" as="geometry" />
        </mxCell>
        <mxCell id="ZNlX92UJGkQ0csMX6uL1-29" style="edgeStyle=orthogonalEdgeStyle;rounded=0;orthogonalLoop=1;jettySize=auto;html=1;" edge="1" parent="1" source="ZNlX92UJGkQ0csMX6uL1-24" target="ZNlX92UJGkQ0csMX6uL1-28">
          <mxGeometry relative="1" as="geometry" />
        </mxCell>
        <mxCell id="ZNlX92UJGkQ0csMX6uL1-31" style="edgeStyle=orthogonalEdgeStyle;rounded=0;orthogonalLoop=1;jettySize=auto;html=1;entryX=1;entryY=0.5;entryDx=0;entryDy=0;" edge="1" parent="1" source="ZNlX92UJGkQ0csMX6uL1-24" target="ZNlX92UJGkQ0csMX6uL1-30">
          <mxGeometry relative="1" as="geometry" />
        </mxCell>
        <mxCell id="ZNlX92UJGkQ0csMX6uL1-36" style="edgeStyle=orthogonalEdgeStyle;rounded=0;orthogonalLoop=1;jettySize=auto;html=1;exitX=0.5;exitY=1;exitDx=0;exitDy=0;entryX=0.5;entryY=0;entryDx=0;entryDy=0;" edge="1" parent="1" source="ZNlX92UJGkQ0csMX6uL1-24" target="ZNlX92UJGkQ0csMX6uL1-35">
          <mxGeometry relative="1" as="geometry" />
        </mxCell>
        <mxCell id="ZNlX92UJGkQ0csMX6uL1-24" value="for (int i = 2; i &amp;lt;= Math.Sqrt(sumOfDigits); i++)&lt;br&gt;{&lt;br&gt;&amp;nbsp; &amp;nbsp; if (sumOfDigits % i == 0)" style="rhombus;whiteSpace=wrap;html=1;" vertex="1" parent="1">
          <mxGeometry x="230" y="780" width="390" height="160" as="geometry" />
        </mxCell>
        <mxCell id="ZNlX92UJGkQ0csMX6uL1-27" value="No?" style="text;html=1;align=center;verticalAlign=middle;whiteSpace=wrap;rounded=0;" vertex="1" parent="1">
          <mxGeometry x="365" y="740" width="60" height="30" as="geometry" />
        </mxCell>
        <mxCell id="ZNlX92UJGkQ0csMX6uL1-28" value="&amp;nbsp;isPrime = true;" style="rounded=0;whiteSpace=wrap;html=1;" vertex="1" parent="1">
          <mxGeometry x="680" y="830" width="120" height="60" as="geometry" />
        </mxCell>
        <mxCell id="ZNlX92UJGkQ0csMX6uL1-30" value="&amp;nbsp;isPrime = false;" style="rounded=0;whiteSpace=wrap;html=1;" vertex="1" parent="1">
          <mxGeometry x="40" y="830" width="120" height="60" as="geometry" />
        </mxCell>
        <mxCell id="ZNlX92UJGkQ0csMX6uL1-32" value="No?" style="text;html=1;align=center;verticalAlign=middle;whiteSpace=wrap;rounded=0;" vertex="1" parent="1">
          <mxGeometry x="170" y="830" width="60" height="30" as="geometry" />
        </mxCell>
        <mxCell id="ZNlX92UJGkQ0csMX6uL1-34" value="Yes?" style="text;html=1;align=center;verticalAlign=middle;whiteSpace=wrap;rounded=0;" vertex="1" parent="1">
          <mxGeometry x="610" y="830" width="60" height="30" as="geometry" />
        </mxCell>
        <mxCell id="ZNlX92UJGkQ0csMX6uL1-35" value="if (isPrime)" style="rhombus;whiteSpace=wrap;html=1;" vertex="1" parent="1">
          <mxGeometry x="365" y="960" width="120" height="120" as="geometry" />
        </mxCell>
        <mxCell id="ZNlX92UJGkQ0csMX6uL1-38" value="sumOfDigits + &quot; is a complex number&quot;" style="shape=document;whiteSpace=wrap;html=1;boundedLbl=1;" vertex="1" parent="1">
          <mxGeometry x="145" y="990" width="120" height="80" as="geometry" />
        </mxCell>
        <mxCell id="ZNlX92UJGkQ0csMX6uL1-39" value="sumOfDigits+&quot; is simple number&quot;" style="shape=document;whiteSpace=wrap;html=1;boundedLbl=1;" vertex="1" parent="1">
          <mxGeometry x="610" y="990" width="120" height="80" as="geometry" />
        </mxCell>
        <mxCell id="ZNlX92UJGkQ0csMX6uL1-40" style="edgeStyle=orthogonalEdgeStyle;rounded=0;orthogonalLoop=1;jettySize=auto;html=1;entryX=0;entryY=0.375;entryDx=0;entryDy=0;entryPerimeter=0;" edge="1" parent="1" source="ZNlX92UJGkQ0csMX6uL1-35" target="ZNlX92UJGkQ0csMX6uL1-39">
          <mxGeometry relative="1" as="geometry" />
        </mxCell>
        <mxCell id="ZNlX92UJGkQ0csMX6uL1-41" style="edgeStyle=orthogonalEdgeStyle;rounded=0;orthogonalLoop=1;jettySize=auto;html=1;exitX=0;exitY=0.5;exitDx=0;exitDy=0;entryX=1.051;entryY=0.375;entryDx=0;entryDy=0;entryPerimeter=0;" edge="1" parent="1" source="ZNlX92UJGkQ0csMX6uL1-35" target="ZNlX92UJGkQ0csMX6uL1-38">
          <mxGeometry relative="1" as="geometry" />
        </mxCell>
      </root>
    </mxGraphModel>
  </diagram>
</mxfile>
